<svg xmlns="http://www.w3.org/2000/svg" width="128" height="128" viewBox="0 0 128 128" role="img" aria-labelledby="title desc">
  <title id="title">MestrIA</title>
  <desc id="desc">Escudo com dado e estrela</desc>
  <defs>
    <linearGradient id="g" x1="0" y1="0" x2="1" y2="1">
      <stop offset="0" stop-color="#0f172a" />
      <stop offset="1" stop-color="#1f2937" />
    </linearGradient>
    <linearGradient id="a" x1="0" y1="0" x2="1" y2="1">
      <stop offset="0" stop-color="#f59e0b" />
      <stop offset="1" stop-color="#ef4444" />
    </linearGradient>
  </defs>
  <rect x="8" y="8" width="112" height="112" rx="24" fill="url(#g)" stroke="#1f2937" stroke-width="2" />
  <path d="M64 18 L102 30 V62 C102 85 86 104 64 112 C42 104 26 85 26 62 V30 Z" fill="#0b1220" stroke="#334155" stroke-width="2" />
  <g transform="translate(32 34)">
    <rect x="6" y="6" width="52" height="52" rx="10" fill="url(#a)" />
    <circle cx="18" cy="18" r="4" fill="#111827" />
    <circle cx="46" cy="18" r="4" fill="#111827" />
    <circle cx="18" cy="46" r="4" fill="#111827" />
    <circle cx="46" cy="46" r="4" fill="#111827" />
    <circle cx="32" cy="32" r="5" fill="#111827" />
  </g>
  <path d="M64 26 L68 36 L79 36 L70 42 L73 52 L64 46 L55 52 L58 42 L49 36 L60 36 Z" fill="#f8fafc" />
</svg>
